<svg width="53" height="47" viewBox="0 0 53 47" fill="none" xmlns="http://www.w3.org/2000/svg">
<path fill-rule="evenodd" clip-rule="evenodd" d="M44 1.90911V12.0909C44 13.1447 44.896 14 46 14C47.104 14 48 13.1447 48 12.0909V1.90911C48 0.85526 47.104 0 46 0C44.896 0 44 0.85526 44 1.90911Z" fill="white"/>
<path fill-rule="evenodd" clip-rule="evenodd" d="M40.9091 9H51.0909C52.1447 9 53 8.10402 53 7C53 5.89598 52.1447 5 51.0909 5H40.9091C39.8553 5 39 5.89598 39 7C39 8.10402 39.8553 9 40.9091 9Z" fill="white"/>
<path fill-rule="evenodd" clip-rule="evenodd" d="M31.4299 1H19.3956C17.7613 1 16.2674 1.93244 15.5377 3.40432L13.2031 8.11608C13.097 8.32505 12.8849 8.4591 12.6509 8.4591H6.77922C3.03495 8.4591 0 11.52 0 15.2972V40.1619C0 41.9748 0.714772 43.7152 1.9846 44.9982C3.25649 46.2787 4.98236 47 6.77922 47H46.2208C48.0181 47 49.7435 46.279 51.0154 44.9982C52.2849 43.7152 53 41.9744 53 40.1619V19.0269C53 17.9975 52.1717 17.162 51.1512 17.162C50.1306 17.162 49.3023 17.9975 49.3023 19.0269V40.1619C49.3023 40.9874 48.9771 41.7759 48.4002 42.3598C47.8208 42.9418 47.0395 43.2698 46.2212 43.2698H6.77963C5.96127 43.2698 5.17959 42.9418 4.60064 42.3598C4.02371 41.7754 3.6985 40.9874 3.6985 40.1619V15.2972C3.6985 13.5812 5.0789 12.1889 6.78004 12.1889H12.6517C14.286 12.1889 15.7799 11.2564 16.5096 9.78455L18.8442 5.07278C18.9503 4.86382 19.1624 4.72977 19.3964 4.72977H31.4307C32.4513 4.72977 33.2796 3.89432 33.2796 2.86489C33.2796 1.83545 32.4513 1 31.4307 1H31.4299Z" fill="white"/>
<path fill-rule="evenodd" clip-rule="evenodd" d="M27.5 14C21.1518 14 16 19.152 16 25.5C16 31.8482 21.152 37 27.5 37C33.848 37 39 31.848 39 25.5C39 19.1518 33.848 14 27.5 14ZM27.5 17.6317C31.8434 17.6317 35.3685 21.1568 35.3685 25.5002C35.3685 29.8436 31.8434 33.3687 27.5 33.3687C23.1566 33.3687 19.6315 29.8436 19.6315 25.5002C19.6315 21.1568 23.1566 17.6317 27.5 17.6317Z" fill="white"/>
</svg>
