<svg width="30" height="30" viewBox="0 0 30 30" fill="none" xmlns="http://www.w3.org/2000/svg">
<g clip-path="url(#clip0_24_716)">
<path fill-rule="evenodd" clip-rule="evenodd" d="M14.5232 1.54963C16.4598 0.332028 18.7524 -0.1921 21.0258 0.0630283C23.2991 0.318157 25.4185 1.33743 27.0371 2.95402C28.6557 4.57061 29.6776 6.68876 29.9356 8.9618C30.1935 11.2348 29.6723 13.5281 28.4571 15.4663C27.242 17.4045 25.4049 18.8728 23.2466 19.6309C21.2892 20.3184 19.1728 20.3849 17.1845 19.83L15.7082 21.3063C15.5206 21.4939 15.2663 21.5992 15.0011 21.5992H12.6151L10.4006 23.8137V26.1997C10.4006 26.465 10.2953 26.7193 10.1077 26.9068L7.30754 29.7071C7.12 29.8946 6.86564 30 6.60043 30H1C0.447715 30 0 29.5523 0 29V23.3995C0 23.134 0.10556 22.8794 0.293416 22.6919L10.1733 12.8266C9.61634 10.8392 9.68029 8.72326 10.3652 6.76548C11.1205 4.60617 12.5865 2.76722 14.5232 1.54963ZM20.8027 2.05055C18.9795 1.84594 17.1409 2.26629 15.5877 3.24279C14.0345 4.2193 12.8588 5.69412 12.253 7.42589C11.6472 9.15766 11.6471 11.0438 12.2529 12.7756C12.3798 13.1384 12.2875 13.5418 12.0156 13.8134L2 23.8141V28H6.18621L8.40064 25.7855V23.3995C8.40064 23.1343 8.50599 22.8799 8.69353 22.6924L11.4937 19.8921C11.6813 19.7046 11.9356 19.5992 12.2009 19.5992H14.5868L16.1981 17.988C16.4694 17.7167 16.8719 17.6245 17.2342 17.7507C18.9667 18.3543 20.8528 18.3519 22.5838 17.7439C24.3147 17.136 25.7881 15.9584 26.7626 14.404C27.7372 12.8495 28.1552 11.0103 27.9483 9.18733C27.7414 7.36436 26.9219 5.6656 25.6238 4.36911C24.3257 3.07261 22.6259 2.25516 20.8027 2.05055Z" fill="white"/>
<path fill-rule="evenodd" clip-rule="evenodd" d="M22 7C21.4477 7 21 7.44772 21 8C21 8.55228 21.4477 9 22 9C22.5523 9 23 8.55228 23 8C23 7.44772 22.5523 7 22 7ZM19 8C19 6.34315 20.3431 5 22 5C23.6569 5 25 6.34315 25 8C25 9.65685 23.6569 11 22 11C20.3431 11 19 9.65685 19 8Z" fill="white"/>
</g>
<defs>
<clipPath id="clip0_24_716">
<rect width="30" height="30" fill="white"/>
</clipPath>
</defs>
</svg>
