<svg width="270" height="150" viewBox="0 0 270 150" fill="none" xmlns="http://www.w3.org/2000/svg">
<rect width="270" height="150" rx="6" fill="#292929" fill-opacity="0.5"/>
<path opacity="0.2" d="M102.426 68.096C103.262 68.096 103.856 67.48 103.856 66.688C103.856 65.94 103.24 65.346 102.426 65.346C101.612 65.346 100.996 65.962 100.996 66.732C100.996 67.502 101.612 68.096 102.426 68.096ZM101.37 82H103.482V70.34H101.37V82ZM122.101 70.23C120.121 70.23 118.493 71.066 117.613 72.386C116.843 70.934 115.347 70.23 113.565 70.23C111.805 70.23 110.375 70.89 109.539 72.078V70.34H107.515V82H109.627V75.994C109.627 73.464 111.013 72.122 113.125 72.122C115.039 72.122 116.139 73.244 116.139 75.532V82H118.251V75.994C118.251 73.464 119.637 72.122 121.749 72.122C123.663 72.122 124.763 73.244 124.763 75.532V82H126.875V75.29C126.875 71.858 124.939 70.23 122.101 70.23ZM135.007 70.23C133.137 70.23 131.399 70.758 130.189 71.726L131.069 73.31C131.971 72.54 133.379 72.056 134.765 72.056C136.855 72.056 137.889 73.09 137.889 74.872V75.29H134.545C131.069 75.29 129.859 76.83 129.859 78.7C129.859 80.724 131.531 82.132 134.171 82.132C135.997 82.132 137.295 81.516 137.999 80.46V82H140.001V74.96C140.001 71.77 138.197 70.23 135.007 70.23ZM134.523 80.504C132.917 80.504 131.949 79.778 131.949 78.612C131.949 77.622 132.543 76.808 134.633 76.808H137.889V78.436C137.361 79.778 136.107 80.504 134.523 80.504ZM153.126 70.34V72.144C152.136 70.868 150.552 70.23 148.814 70.23C145.448 70.23 142.896 72.496 142.896 75.862C142.896 79.228 145.448 81.516 148.814 81.516C150.486 81.516 152.004 80.922 153.016 79.712V80.636C153.016 83.276 151.762 84.552 149.012 84.552C147.296 84.552 145.602 83.958 144.524 83.034L143.512 84.662C144.788 85.806 146.944 86.4 149.078 86.4C153.038 86.4 155.128 84.53 155.128 80.416V70.34H153.126ZM149.056 79.668C146.702 79.668 145.03 78.106 145.03 75.862C145.03 73.596 146.702 72.078 149.056 72.078C151.388 72.078 153.06 73.596 153.06 75.862C153.06 78.106 151.388 79.668 149.056 79.668ZM169.701 76.236C169.701 72.65 167.303 70.23 163.937 70.23C160.571 70.23 158.085 72.716 158.085 76.17C158.085 79.646 160.593 82.132 164.355 82.132C166.291 82.132 167.897 81.472 168.953 80.24L167.787 78.876C166.929 79.822 165.785 80.284 164.421 80.284C162.111 80.284 160.461 78.92 160.197 76.874H169.657C169.679 76.676 169.701 76.412 169.701 76.236ZM163.937 72.012C165.983 72.012 167.457 73.398 167.677 75.356H160.197C160.417 73.376 161.913 72.012 163.937 72.012Z" fill="white"/>
</svg>
