<svg width="26" height="30" viewBox="0 0 26 30" fill="none" xmlns="http://www.w3.org/2000/svg">
<path fill-rule="evenodd" clip-rule="evenodd" d="M7.43691 2.35047C8.90875 0.847972 10.9094 0 13 0C15.0906 0 17.0913 0.847972 18.5631 2.35047C20.0342 3.85227 20.8571 5.88484 20.8571 8C20.8571 10.1152 20.0342 12.1477 18.5631 13.6495C18.1619 14.059 17.7215 14.4199 17.2507 14.7283C19.0977 15.3797 20.7939 16.4532 22.1996 17.8882C24.6353 20.3745 26 23.7425 26 27.25V29C26 29.5523 25.5523 30 25 30H1C0.447715 30 0 29.5523 0 29V27.25C0 23.7425 1.36474 20.3745 3.80036 17.8882C5.20609 16.4532 6.90228 15.3797 8.74933 14.7283C8.2785 14.4199 7.83806 14.059 7.43691 13.6495C5.96576 12.1477 5.14286 10.1152 5.14286 8C5.14286 5.88485 5.96576 3.85227 7.43691 2.35047ZM13 16C10.0894 16 7.29364 17.1801 5.22908 19.2877C3.16383 21.396 2 24.2597 2 27.25V28H24V27.25C24 24.2597 22.8362 21.396 20.7709 19.2877C18.7064 17.1801 15.9107 16 13 16ZM13 2C11.4533 2 9.96572 2.62702 8.86563 3.75003C7.76485 4.87374 7.14286 6.40212 7.14286 8C7.14286 9.59788 7.76485 11.1263 8.86563 12.25C9.96572 13.373 11.4533 14 13 14C14.5467 14 16.0343 13.373 17.1344 12.25C18.2351 11.1263 18.8571 9.59788 18.8571 8C18.8571 6.40212 18.2351 4.87374 17.1344 3.75003C16.0343 2.62702 14.5467 2 13 2Z" fill="white"/>
</svg>
