<svg width="34" height="34" viewBox="0 0 34 34" fill="none" xmlns="http://www.w3.org/2000/svg">
<path d="M18.2116 0.502711C18.0536 0.343419 17.8656 0.216986 17.6585 0.130704C17.4514 0.0444221 17.2293 0 17.0049 0C16.7806 0 16.5584 0.0444221 16.3513 0.130704C16.1442 0.216986 15.9563 0.343419 15.7983 0.502711L0.502711 15.7983C0.343419 15.9563 0.216985 16.1442 0.130704 16.3513C0.0444221 16.5584 0 16.7806 0 17.0049C0 17.2293 0.0444221 17.4514 0.130704 17.6585C0.216985 17.8656 0.343419 18.0536 0.502711 18.2116C0.661513 18.3691 0.849845 18.4937 1.05691 18.5783C1.26397 18.6629 1.48569 18.7057 1.70936 18.7044H3.40887V30.601C3.40887 31.5025 3.76697 32.367 4.40441 33.0045C5.04185 33.6419 5.9064 34 6.80788 34H27.2019C28.1034 34 28.968 33.6419 29.6054 33.0045C30.2428 32.367 30.601 31.5025 30.601 30.601V18.7044H32.3005C32.7512 18.7044 33.1835 18.5254 33.5022 18.2067C33.8209 17.8879 34 17.4557 34 17.0049C34.0013 16.7813 33.9584 16.5595 33.8738 16.3525C33.7892 16.1454 33.6646 15.9571 33.5071 15.7983L18.2116 0.502711ZM6.80788 30.601V14.3027L17.0049 4.10567L27.2019 14.3027V30.601H6.80788Z" fill="url(#paint0_linear_28_857)"/>
<defs>
<linearGradient id="paint0_linear_28_857" x1="17" y1="9.42391" x2="17" y2="26.6087" gradientUnits="userSpaceOnUse">
<stop stop-color="#FADF78"/>
<stop offset="1" stop-color="#F7E9BA"/>
</linearGradient>
</defs>
</svg>
