<svg width="48" height="48" viewBox="0 0 48 48" fill="none" xmlns="http://www.w3.org/2000/svg">
<mask id="path-1-inside-1_196_31" fill="white">
<path d="M46.2448 33.0093C44.148 38.1864 40.3112 42.47 35.3954 45.1221C30.4796 47.7742 24.7928 48.6286 19.3147 47.5382C13.8366 46.4478 8.91037 43.4808 5.38484 39.1485C1.85932 34.8161 -0.0447253 29.3898 0.000797085 23.8044C0.0463195 18.219 2.03855 12.8244 5.63423 8.55013C9.2299 4.27583 14.2038 1.38953 19.699 0.38854C25.1941 -0.612449 30.8663 0.334571 35.7382 3.06642C40.6101 5.79827 44.3766 10.1439 46.3887 15.3544L43.9473 16.2972C42.1546 11.6548 38.7989 7.78308 34.4582 5.34912C30.1176 2.91516 25.0639 2.07141 20.168 2.96324C15.272 3.85508 10.8405 6.42665 7.63692 10.2349C4.43333 14.0431 2.65834 18.8494 2.61778 23.8257C2.57722 28.802 4.27364 33.6367 7.41473 37.4966C10.5558 41.3565 14.9449 44 19.8256 44.9715C24.7063 45.943 29.7731 45.1818 34.1528 42.8189C38.5326 40.456 41.951 36.6395 43.8191 32.0269L46.2448 33.0093Z"/>
</mask>
<path d="M46.2448 33.0093C44.148 38.1864 40.3112 42.47 35.3954 45.1221C30.4796 47.7742 24.7928 48.6286 19.3147 47.5382C13.8366 46.4478 8.91037 43.4808 5.38484 39.1485C1.85932 34.8161 -0.0447253 29.3898 0.000797085 23.8044C0.0463195 18.219 2.03855 12.8244 5.63423 8.55013C9.2299 4.27583 14.2038 1.38953 19.699 0.38854C25.1941 -0.612449 30.8663 0.334571 35.7382 3.06642C40.6101 5.79827 44.3766 10.1439 46.3887 15.3544L43.9473 16.2972C42.1546 11.6548 38.7989 7.78308 34.4582 5.34912C30.1176 2.91516 25.0639 2.07141 20.168 2.96324C15.272 3.85508 10.8405 6.42665 7.63692 10.2349C4.43333 14.0431 2.65834 18.8494 2.61778 23.8257C2.57722 28.802 4.27364 33.6367 7.41473 37.4966C10.5558 41.3565 14.9449 44 19.8256 44.9715C24.7063 45.943 29.7731 45.1818 34.1528 42.8189C38.5326 40.456 41.951 36.6395 43.8191 32.0269L46.2448 33.0093Z" stroke="white" stroke-width="6" mask="url(#path-1-inside-1_196_31)"/>
<path d="M34.0352 23.9999H13.0897M13.0897 23.9999L21.3806 15.709M13.0897 23.9999L21.3806 32.2908" stroke="white" stroke-width="3" stroke-linejoin="round"/>
</svg>
