<svg width="44" height="44" viewBox="0 0 44 44" fill="none" xmlns="http://www.w3.org/2000/svg">
<path fill-rule="evenodd" clip-rule="evenodd" d="M22 41.5C32.7696 41.5 41.5 32.7696 41.5 22C41.5 11.2304 32.7696 2.5 22 2.5C11.2304 2.5 2.5 11.2304 2.5 22C2.5 32.7696 11.2304 41.5 22 41.5ZM22 44C34.1503 44 44 34.1503 44 22C44 9.84974 34.1503 0 22 0C9.84974 0 0 9.84974 0 22C0 34.1503 9.84974 44 22 44Z" fill="url(#paint0_linear_445_1351)"/>
<path d="M17.8214 6L13 12.5L15.6786 19H24.25L28 11.9583L24.25 6H17.8214Z" fill="#D8B45D"/>
<path d="M23.5 20H15.5L14 28L22 31L27 25.5L23.5 20Z" fill="#D8B45D"/>
<path d="M25 20L29.3077 13H35.7692L39 19L35.2308 27H29.3077L25 20Z" fill="#D8B45D"/>
<path d="M25.5 6L29 12L36.5 11.5L34 7L31 5L25.5 6Z" fill="#D8B45D"/>
<path d="M16 5H26L30 4L26 2H19L16 5Z" fill="#D8B45D"/>
<path d="M37 13L37.5 9.5L41 15.5V21L37 13Z" fill="#D8B45D"/>
<path d="M38.7778 31L36.5 27.5L37.8889 24.8889L39.6667 20L41 23.0556L40.5556 27.3333L38.7778 31Z" fill="#D8B45D"/>
<defs>
<linearGradient id="paint0_linear_445_1351" x1="44" y1="1.3113e-06" x2="-1.3113e-06" y2="44" gradientUnits="userSpaceOnUse">
<stop stop-color="#D8B45D"/>
<stop offset="0.384251" stop-color="#D8B45D"/>
<stop offset="0.572388" stop-color="#D8B45D" stop-opacity="0.15"/>
<stop offset="0.717971" stop-color="#D8B45D" stop-opacity="0"/>
</linearGradient>
</defs>
</svg>
