<svg width="73" height="119" viewBox="0 0 73 119" fill="none" xmlns="http://www.w3.org/2000/svg">
<path fill-rule="evenodd" clip-rule="evenodd" d="M34.8803 2.34821C33.023 5.49026 23.0569 22.1034 16.9942 32.1634C5.58817 51.0894 0.283175 60.0121 0.283175 60.2699C0.283175 60.4214 4.45632 63.0411 9.55714 66.0918C14.658 69.1427 22.654 73.9311 27.3263 76.7327C32.2791 79.7029 36.1166 81.8268 36.5295 81.8268C36.9387 81.8265 40.5248 79.8574 45.0248 77.1623C54.3287 71.5897 61.2756 67.4409 67.8911 63.5053C70.5779 61.9071 72.7759 60.4598 72.7759 60.2887C72.7759 60.1179 72.3732 59.3232 71.881 58.5234C70.7693 56.716 56.151 32.4033 53.3793 27.7516C51.0269 23.8043 37.6716 1.59451 37.076 0.640422C36.8563 0.288332 36.5847 0 36.4723 0C36.3602 0 35.6437 1.05655 34.8803 2.34821ZM0 66.7592C0 66.8395 6.13951 75.6432 13.6433 86.3228C21.1472 97.0028 29.3828 108.724 31.9446 112.37L36.6029 119L37.3269 117.921C37.7254 117.327 40.3456 113.575 43.1499 109.583C45.9538 105.591 49.0914 101.108 50.1222 99.6211C51.9226 97.0227 59.5403 86.1526 68.7395 73.0547C71.1402 69.6363 73.0568 66.7914 72.9987 66.7328C72.9404 66.6744 69.5213 68.6512 65.4009 71.1261C41.3013 85.6007 36.8555 88.2359 36.5357 88.2359C36.3409 88.2359 35.2725 87.6754 34.161 86.9906C32.3796 85.8925 15.5163 75.8339 7.36254 71.0057C5.72721 70.0374 3.40178 68.6529 2.1946 67.9294C0.98743 67.2056 0 66.6793 0 66.7592Z" fill="#D8B45D"/>
</svg>
