<svg width="32" height="36" viewBox="0 0 32 36" fill="none" xmlns="http://www.w3.org/2000/svg">
<path d="M27.3348 0.548884H2.14622C1.45074 0.548884 0.886719 1.11259 0.886719 1.80839V34.5535C0.886719 35.249 1.45043 35.813 2.14622 35.813H27.3348C29.4183 35.813 31.1129 34.1184 31.1129 32.0349L31.1132 4.32672C31.1132 2.24319 29.4183 0.548584 27.3348 0.548584L27.3348 0.548884ZM28.5943 32.0346C28.5943 32.7289 28.0291 33.2941 27.3348 33.2941H3.40565V3.06782H27.3348C28.0291 3.06782 28.5943 3.63299 28.5943 4.32732V32.0346Z" fill="url(#paint0_linear_28_840)"/>
<path d="M15.9973 5.58667C10.4419 5.58667 5.92188 10.1069 5.92188 15.6621C5.92188 21.2175 10.4421 25.7375 15.9973 25.7375C21.5527 25.7375 26.0727 21.2173 26.0727 15.6621C26.0727 10.107 21.5528 5.58667 15.9973 5.58667ZM23.44 14.4027H20.9936C20.885 12.5376 20.5359 10.7284 19.9538 9.23646C21.7685 10.3577 23.0716 12.2205 23.44 14.4027V14.4027ZM15.9973 23.2187C15.1929 23.2187 13.792 20.8485 13.5325 16.9215H18.4618C18.2026 20.8485 16.8017 23.2187 15.9973 23.2187ZM13.5325 14.4027C13.7919 10.4757 15.1928 8.10553 15.9973 8.10553C16.8018 8.10553 18.2026 10.4757 18.4621 14.4027H13.5325ZM12.0405 9.23646C11.4584 10.7287 11.109 12.5373 11.0007 14.4027H8.5543C8.92299 12.2205 10.2261 10.3577 12.0405 9.23646ZM8.5546 16.9212H11.001C11.1096 18.7863 11.4587 20.5955 12.0408 22.0874C10.2261 20.9662 8.92299 19.1034 8.5546 16.9212V16.9212ZM19.9539 22.0874C20.5361 20.5952 20.8855 18.7866 20.9938 16.9212H23.4401C23.0715 19.1034 21.7683 20.9662 19.9539 22.0874V22.0874Z" fill="url(#paint1_linear_28_840)"/>
<path d="M23.5547 29.5159C23.5547 30.2114 22.991 30.7754 22.2952 30.7754H9.70091C9.00543 30.7754 8.44141 30.2117 8.44141 29.5159C8.44141 28.8204 9.00511 28.2563 9.70091 28.2563H22.2952C22.9907 28.2563 23.5547 28.8204 23.5547 29.5159Z" fill="url(#paint2_linear_28_840)"/>
<defs>
<linearGradient id="paint0_linear_28_840" x1="16" y1="10.323" x2="16" y2="28.1469" gradientUnits="userSpaceOnUse">
<stop stop-color="#FADF78"/>
<stop offset="1" stop-color="#F7E9BA"/>
</linearGradient>
<linearGradient id="paint1_linear_28_840" x1="15.9973" y1="11.172" x2="15.9973" y2="21.3569" gradientUnits="userSpaceOnUse">
<stop stop-color="#FADF78"/>
<stop offset="1" stop-color="#F7E9BA"/>
</linearGradient>
<linearGradient id="paint2_linear_28_840" x1="15.9981" y1="28.9546" x2="15.9981" y2="30.2278" gradientUnits="userSpaceOnUse">
<stop stop-color="#FADF78"/>
<stop offset="1" stop-color="#F7E9BA"/>
</linearGradient>
</defs>
</svg>
