<svg width="61" height="61" viewBox="0 0 61 61" fill="none" xmlns="http://www.w3.org/2000/svg">
<path fill-rule="evenodd" clip-rule="evenodd" d="M16.7792 2.01131C13.7633 2.24431 11.0368 3.21671 8.68617 4.89757C7.85625 5.49105 7.46845 5.82329 6.65725 6.63575C5.34226 7.9527 4.45788 9.17246 3.66555 10.7621C2.7422 12.6144 2.22895 14.4725 2.04776 16.6188C1.98256 17.3911 1.98484 43.6045 2.05014 44.4103C2.42116 48.9873 4.71025 53.1237 8.40177 55.8879C10.6254 57.553 13.2848 58.5954 16.1615 58.9297C16.9685 59.0234 44.056 59.0234 44.863 58.9297C48.6501 58.4896 52.0067 56.8394 54.5973 54.1439C56.7654 51.8881 58.1996 49.0936 58.756 46.0408C59.0108 44.6431 58.9999 45.3348 58.9999 30.498C58.9999 15.6613 59.0108 16.353 58.756 14.9552C58.2979 12.4419 57.2461 10.1124 55.6225 8.01563C55.1295 7.37881 53.7115 5.93941 53.1395 5.49499C50.6398 3.55285 48.2483 2.53668 45.1244 2.08926C44.5966 2.01369 43.5275 2.00713 30.7736 2.00119C23.1943 1.99767 16.8969 2.00223 16.7792 2.01131ZM48.5342 9.48873C50.3184 9.94912 51.3334 11.8847 50.7024 13.6234C50.5409 14.0684 50.3109 14.4254 49.9589 14.7777C48.7125 16.0243 46.7467 16.0243 45.5003 14.7777C44.4097 13.6867 44.2573 12.0588 45.1244 10.7621C45.8558 9.66821 47.2345 9.15335 48.5342 9.48873ZM32.5793 14.785C33.8195 14.9629 34.956 15.2467 36.0328 15.6475C41.103 17.5345 44.8837 21.9159 46.0006 27.1986C46.2659 28.4536 46.309 28.9145 46.309 30.498C46.309 32.0112 46.2663 32.5145 46.0476 33.5823C45.3625 36.926 43.6871 39.9062 41.2278 42.1557C40.0777 43.2077 38.8945 44.0132 37.4738 44.7112C35.2129 45.8221 33.0406 46.326 30.5123 46.326C27.9839 46.326 25.8116 45.8221 23.5507 44.7112C22.5444 44.2168 21.8423 43.7876 20.9883 43.1448C17.5972 40.5924 15.4032 36.8454 14.8058 32.5862C14.6871 31.7394 14.6609 29.7866 14.7563 28.882C15.4366 22.4249 19.9074 17.0779 26.1412 15.2659C26.8256 15.0669 27.9807 14.8397 28.6828 14.7659C28.9703 14.7357 29.2482 14.7034 29.3005 14.6942C29.5706 14.6465 32.1024 14.7166 32.5793 14.785Z" fill="white"/>
<path d="M23.4502 21.4016C25.0893 20.1495 27.0904 19.3238 29.0654 19.0848C32.0937 18.7182 35.1347 19.5495 37.5443 21.4027C38.0454 21.788 39.0265 22.7488 39.4301 23.2493C40.8396 24.9973 41.7228 27.1574 41.9449 29.4001C42.2909 32.8932 40.9933 36.3656 38.4244 38.8209C32.8096 44.1876 23.5977 42.5363 20.171 35.5489C18.2033 31.5367 18.7469 26.7396 21.5644 23.2512C21.9758 22.7419 22.962 21.7746 23.4502 21.4016Z" fill="white"/>
</svg>
