<svg width="24" height="38" viewBox="0 0 24 38" fill="none" xmlns="http://www.w3.org/2000/svg">
<path d="M19.125 2.375C19.7549 2.375 20.359 2.62522 20.8044 3.07062C21.2498 3.51602 21.5 4.12011 21.5 4.75V33.25C21.5 33.8799 21.2498 34.484 20.8044 34.9294C20.359 35.3748 19.7549 35.625 19.125 35.625H4.875C4.24511 35.625 3.64102 35.3748 3.19562 34.9294C2.75022 34.484 2.5 33.8799 2.5 33.25V4.75C2.5 4.12011 2.75022 3.51602 3.19562 3.07062C3.64102 2.62522 4.24511 2.375 4.875 2.375H19.125ZM4.875 0C3.61522 0 2.40704 0.500445 1.51624 1.39124C0.625445 2.28204 0.125 3.49022 0.125 4.75V33.25C0.125 34.5098 0.625445 35.718 1.51624 36.6088C2.40704 37.4996 3.61522 38 4.875 38H19.125C20.3848 38 21.593 37.4996 22.4838 36.6088C23.3746 35.718 23.875 34.5098 23.875 33.25V4.75C23.875 3.49022 23.3746 2.28204 22.4838 1.39124C21.593 0.500445 20.3848 0 19.125 0L4.875 0Z" fill="url(#paint0_linear_28_885)"/>
<path d="M12 33.25C12.6299 33.25 13.234 32.9998 13.6794 32.5544C14.1248 32.109 14.375 31.5049 14.375 30.875C14.375 30.2451 14.1248 29.641 13.6794 29.1956C13.234 28.7502 12.6299 28.5 12 28.5C11.3701 28.5 10.766 28.7502 10.3206 29.1956C9.87522 29.641 9.625 30.2451 9.625 30.875C9.625 31.5049 9.87522 32.109 10.3206 32.5544C10.766 32.9998 11.3701 33.25 12 33.25Z" fill="url(#paint1_linear_28_885)"/>
<defs>
<linearGradient id="paint0_linear_28_885" x1="12" y1="10.5326" x2="12" y2="29.7391" gradientUnits="userSpaceOnUse">
<stop stop-color="#FADF78"/>
<stop offset="1" stop-color="#F7E9BA"/>
</linearGradient>
<linearGradient id="paint1_linear_28_885" x1="12" y1="29.8166" x2="12" y2="32.2174" gradientUnits="userSpaceOnUse">
<stop stop-color="#FADF78"/>
<stop offset="1" stop-color="#F7E9BA"/>
</linearGradient>
</defs>
</svg>
