<svg width="126" height="126" viewBox="0 0 126 126" fill="none" xmlns="http://www.w3.org/2000/svg">
<path fill-rule="evenodd" clip-rule="evenodd" d="M55.6005 0.471192C37.262 3.22128 22.8747 11.6539 12.118 25.9565C1.68606 39.8269 -2.31687 58.4123 1.30915 76.1408C5.71487 97.6843 21.9456 115.809 43.0795 122.786C51.0085 125.404 53.7057 126.04 63.6665 125.998C72.1728 125.963 72.8011 125.654 77.4594 124.433C90.486 121.017 99.9562 115.584 108.662 106.53C115.4 99.5244 119.866 92.1192 122.884 82.9512C125.213 75.8752 126 70.8622 126 63.1028C126 46.3756 120.211 31.8472 108.746 19.7991C99.8182 10.4171 88.5993 4.19891 75.3108 1.26731C66.3721 -0.847982 56.8754 0.279943 55.6005 0.471192ZM70.5316 3.61681C81.4988 5.11828 92.2385 9.65182 100.482 16.2596C109.768 23.7028 116.137 32.7969 119.891 43.9725C122.104 50.5596 122.993 56.04 122.993 63.1028C122.993 76.2594 118.85 88.8216 111.159 98.9828C104.726 107.481 95.7559 114.536 86.7509 118.177C77.4895 121.923 69.9306 123.285 60.4816 122.912C44.9402 122.298 30.5902 115.864 19.6638 104.611C16.503 101.356 11.815 94.8633 9.72841 90.8507C7.24669 86.0791 4.7221 78.386 3.86133 72.9723C3.00438 67.5853 2.98995 58.6178 3.82992 53.3941C7.1809 32.5517 21.8908 14.5328 41.5672 7.16681C50.8578 3.68941 61.5177 2.38254 70.5316 3.61681ZM59.2083 14.7455C59.2083 19.027 59.3518 22.6095 59.5266 22.7071C59.7015 22.8041 60.5614 22.7949 61.4366 22.6855L63.0283 22.4871V20.2119V17.9363L64.8322 17.9371C66.5941 17.9384 66.6751 18.0017 68.2999 20.6475C69.6929 22.9164 70.1984 23.4006 71.4072 23.626C72.201 23.7742 73.1237 23.9996 73.4573 24.1271C74.4522 24.5065 74.161 23.5965 72.3419 20.6412C71.3949 19.1022 70.6789 17.7949 70.7502 17.7358C70.8219 17.6767 71.3207 17.4006 71.8584 17.1224C74.1742 15.9232 75.1368 12.3876 73.8308 9.87638C72.5613 7.43401 71.1106 6.96462 64.8322 6.96293L59.2083 6.96124V14.7455ZM43.61 10.1626C42.4942 10.648 42.2306 11.0047 42.2306 12.0296C42.2306 12.7261 42.0175 16.6294 41.7573 20.7033C41.4967 24.7771 41.3825 28.2089 41.5039 28.3292C41.6249 28.4495 42.5065 28.1511 43.4627 27.6657C45.1418 26.8143 45.2017 26.7121 45.2017 24.7121V22.6404L47.43 21.8193C51.5556 20.2997 51.393 20.2963 52.6447 21.9291C53.4762 23.0131 54.1175 23.4238 54.9796 23.4238C56.5275 23.4238 57.5105 23.0338 57.5105 22.42C57.5105 22.1494 55.8395 20.122 53.7967 17.9139C51.7542 15.7062 49.194 12.9084 48.1079 11.697C45.9899 9.33438 45.7238 9.24363 43.61 10.1626ZM70.0465 10.9477C70.7315 11.629 70.9913 12.239 70.8105 12.7417C70.2269 14.366 69.7545 14.5593 66.3721 14.5593H63.0283V12.5193C63.0283 11.3969 63.1556 10.3521 63.3114 10.1976C63.4668 10.0427 64.8127 9.91606 66.3016 9.91606C68.6072 9.91606 69.1632 10.0693 70.0465 10.9477ZM81.8795 12.7586C79.9755 16.9992 77.0349 24.3478 77.0349 24.8658C77.0349 25.3305 79.894 26.6306 80.2149 26.3115C80.2947 26.2322 81.2229 24.0777 82.2768 21.5239C83.3311 18.9705 84.6923 15.7653 85.3014 14.4015C85.9105 13.0376 86.343 11.8565 86.2628 11.7768C86.1825 11.697 85.4092 11.3373 84.5446 10.9781L82.9725 10.3247L81.8795 12.7586ZM47.2263 18.4728C46.2781 18.8839 45.4118 19.13 45.3006 19.0199C45.1898 18.9093 45.2322 17.7577 45.3952 16.4606L45.6915 14.1022L47.3209 15.9135L48.9499 17.7252L47.2263 18.4728ZM29.1505 16.9916C27.9201 17.648 21.0309 24.9185 21.0148 25.5779C21.008 25.8468 31.9102 35.7965 32.4217 35.9886C32.5864 36.0502 33.285 35.5069 33.9743 34.7813L35.2273 33.4618L33.4531 31.9632L31.6793 30.4652L34.4081 27.3529C36.9857 24.4141 37.1373 24.1233 37.1373 22.1228C37.1373 19.4344 36.2935 17.813 34.4391 16.938C32.5507 16.0469 30.8903 16.0638 29.1505 16.9916ZM91.5127 17.6813C90.3845 18.3031 89.382 19.8561 89.3587 21.0177C89.3336 22.2934 90.615 24.363 92.9477 26.8147C95.261 29.2457 96.081 30.8223 95.3896 31.5099C94.2461 32.6471 90.3502 29.7518 88.4147 26.3267C87.3795 24.4947 86.8922 24.3474 85.52 25.4525L84.5735 26.2148L85.4916 28.0042C88.1358 33.1591 93.8195 36.6593 96.9401 35.0544C98.5309 34.2363 99.106 33.2233 99.106 31.2397C99.106 29.2178 98.2478 27.6644 95.4689 24.6585C92.9775 21.9633 92.5929 20.8903 94.1188 20.8928C96.0704 20.8957 98.449 22.9941 100.63 26.6357C101.072 27.374 101.143 27.3757 102.221 26.6728C103.668 25.7303 103.642 25.0536 102.075 22.7877C99.0012 18.3441 94.3709 16.1056 91.5127 17.6813ZM33.0749 20.71C33.4416 21.0751 33.7417 21.7514 33.7417 22.2128C33.7417 23.0127 29.7358 27.645 29.044 27.645C28.5975 27.645 26.1017 25.5361 26.1017 25.1591C26.1017 24.9937 27.072 23.7759 28.2579 22.4529C30.5329 19.9143 31.8097 19.4521 33.0749 20.71ZM56.5899 26.3605C48.8307 27.7716 42.1529 31.3845 36.2884 37.344C27.1603 46.62 23.6731 59.8559 26.9748 72.6942C30.1225 84.9347 40.481 95.4674 52.8417 98.9959C57.3773 100.291 65.5126 100.595 70.2222 99.6455C81.9992 97.2724 91.5093 89.8515 96.7665 78.9322C99.502 73.2501 100.176 69.9871 100.122 62.6807C100.082 57.3515 99.9307 56.0792 98.9494 52.8424C97.6013 48.3963 96.3165 45.7745 93.4783 41.6778C88.8332 34.9729 81.1181 29.4681 73.2149 27.2186C69.6645 26.2081 60.1323 25.7163 56.5899 26.3605ZM65.9994 30.7163C65.9994 38.6137 68.9671 50.9062 72.622 58.1463C73.6483 60.1792 74.4883 61.9365 74.4883 62.0509C74.4883 62.1649 69.3156 62.2586 62.9931 62.2586C56.6706 62.2586 51.5628 62.1159 51.6422 61.942C51.7216 61.7681 52.4317 60.3933 53.2198 58.8871C55.1511 55.1974 56.4999 51.5402 57.7211 46.682C58.9146 41.9337 60.0572 34.5403 60.0572 31.5656C60.0572 30.4153 60.1845 29.3474 60.3403 29.1929C60.4957 29.038 61.8327 28.9113 63.3114 28.9113H65.9994V30.7163ZM57.7041 31.5496C56.1608 44.6905 53.0097 53.6858 46.5883 63.2805C43.8498 67.3725 37.5333 74.175 33.8818 76.9643L32.1114 78.3168L31.2532 76.0352C29.3139 70.8799 28.8988 68.5401 28.9213 62.8918C28.94 58.1991 29.1068 56.8656 30.0741 53.6867C30.6963 51.6415 31.7074 48.9839 32.3203 47.7804C33.6819 45.1088 37.3669 40.1451 39.3125 38.363C43.3634 34.6517 48.8239 31.566 53.8994 30.1203C57.9791 28.9578 58.0071 28.9683 57.7041 31.5496ZM72.3631 30.2051C86.8341 34.1933 97.3972 48.0742 97.3972 63.1028C97.3972 66.9563 96.1387 73.275 94.7928 76.1783L93.8004 78.3189L90.4049 75.427C81.596 67.9243 74.6262 57.2303 71.2443 46.0269C70.2799 42.8319 68.9132 35.8303 68.3771 31.3385C68.0957 28.9806 68.0092 29.0055 72.3631 30.2051ZM77.8732 67.4257C79.2399 69.481 82.4958 73.226 85.8298 76.5789L91.4732 82.2534L90.3705 83.836C89.1507 85.5865 85.1978 89.4273 83.1384 90.8629L81.8142 91.7861L81.6003 88.7363C81.3197 84.7397 79.9789 81.3623 77.65 78.7862C69.3958 69.6562 55.0059 70.1357 47.6541 79.7866C45.7297 82.3125 44.7764 84.9833 44.4122 88.8705L44.1406 91.7684L41.3885 89.5573C38.9764 87.619 34.5541 82.7655 34.611 82.1192C34.6224 81.9913 35.8185 80.8423 37.2693 79.5654C40.9904 76.2898 45.894 70.7862 48.3816 67.0927L50.5009 63.9471H63.03H75.5596L77.8732 67.4257ZM69.7235 75.9622C76.3176 79.543 79.0948 86.8427 76.2748 93.1829C75.4789 94.9727 75.2098 95.1968 73.1424 95.7903C69.4221 96.8591 66.4939 97.2943 63.0283 97.2943C59.5627 97.2943 56.6345 96.8591 52.9142 95.7903C50.8459 95.1964 50.576 94.9714 49.7547 93.1571C48.464 90.3062 48.4814 85.581 49.7933 82.7313C50.9066 80.3125 52.2856 78.7448 54.8633 76.9664C57.8144 74.9305 59.4401 74.4987 63.665 74.6292C66.9421 74.73 67.8029 74.9196 69.7235 75.9622ZM61.5194 80.6329C60.9485 81.9162 60.4791 83.3885 60.4766 83.9043C60.471 84.8537 62.6374 90.1023 63.0283 90.0879C63.145 90.0833 63.8551 88.784 64.6064 87.2002C65.6955 84.9048 65.9005 84.0715 65.6183 83.0918C65.0716 81.1973 63.4863 78.299 62.9965 78.299C62.755 78.299 62.0903 79.3493 61.5194 80.6329ZM56.3709 85.478C54.4529 86.2467 54.1103 89.212 55.8336 90.1293C57.7189 91.1327 59.533 90.047 58.3463 88.6253C58.0534 88.2745 57.9307 87.8714 58.0734 87.7291C58.4193 87.3855 60.4651 88.7401 60.7622 89.5096C61.0389 90.2277 62.1794 90.3332 62.1794 89.6405C62.1794 88.5953 60.3887 86.3716 59.0313 85.7308C58.241 85.3581 57.5279 85.0652 57.4465 85.0795C57.365 85.0943 56.8811 85.2737 56.3709 85.478ZM67.6972 85.3552C66.3436 85.8385 63.8772 88.7638 63.8772 89.8862C63.8772 90.3965 65.075 90.0782 65.2944 89.5096C65.5915 88.7401 67.6373 87.3855 67.9833 87.7291C68.1259 87.8714 68.0032 88.2745 67.7103 88.6253C66.9476 89.5388 67.4888 90.5404 68.7451 90.5404C70.0095 90.5404 71.5172 89.1888 71.5172 88.0546C71.5172 86.4142 69.2396 84.8047 67.6972 85.3552ZM62.2643 91.047C61.5517 91.7557 61.6302 92.8667 62.4405 93.5354C63.0279 94.0204 63.241 93.9592 63.9366 93.1048C64.6985 92.1694 64.7044 92.0605 64.0347 91.3243C63.1977 90.4045 62.9494 90.3657 62.2643 91.047Z" fill="white" fill-opacity="0.8"/>
<path fill-rule="evenodd" clip-rule="evenodd" d="M96.9485 91.9234L96.4107 92.4622L97.6419 93.6476C98.319 94.2996 98.9095 94.8331 98.9542 94.8331C99.0466 94.8331 99.9636 95.6925 99.9636 95.7791C99.9636 95.8103 99.8207 95.8358 99.646 95.8358C99.4713 95.8358 99.3284 95.7892 99.3284 95.7323C99.3284 95.6752 98.6709 95.5232 97.8674 95.3943C97.0638 95.2656 96.4064 95.1226 96.4064 95.0766C96.4064 95.0306 96.1033 94.9578 95.7327 94.9148C95.3622 94.8718 94.8838 94.8021 94.6696 94.7599C94.3403 94.6948 94.2106 94.7517 93.8293 95.1279C93.3387 95.6118 93.1112 96.0865 93.3698 96.0865C93.456 96.0865 93.9717 96.5377 94.516 97.0892C95.0601 97.6407 95.5497 98.0919 95.604 98.0919C95.6582 98.0919 96.1735 98.5714 96.749 99.1573C97.3245 99.7433 97.8449 100.223 97.9055 100.223C97.9661 100.223 98.2188 100.423 98.467 100.668L98.9185 101.114L99.5046 100.543C100.132 99.9331 100.184 99.8467 99.9235 99.8467C99.7488 99.8467 98.5661 98.7418 98.5661 98.5786C98.5661 98.5271 98.4517 98.449 98.3117 98.4052C98.0394 98.3199 96.6225 96.9596 96.7129 96.8704C96.7908 96.7934 98.7445 97.1128 98.8202 97.2148C98.8551 97.2619 99.5412 97.4028 100.345 97.5279C101.148 97.653 101.845 97.8148 101.893 97.8875C101.946 97.9672 102.097 97.874 102.274 97.6521C102.435 97.4499 102.696 97.1741 102.853 97.0389C103.011 96.9038 103.14 96.7502 103.14 96.6975C103.14 96.5772 101.506 94.9584 101.385 94.9584C101.335 94.9584 100.82 94.479 100.24 93.893C99.6595 93.307 99.1452 92.8276 99.0972 92.8276C99.049 92.8276 98.667 92.503 98.248 92.1061L97.4863 91.3846L96.9485 91.9234ZM26.7787 91.8664C26.5999 91.947 26.2713 92.1981 26.0482 92.4245C25.6815 92.7969 25.6428 92.91 25.6428 93.6064C25.6428 94.3551 25.8542 95.2091 26.0395 95.2091C26.09 95.2091 26.1975 95.407 26.2784 95.6489C26.3593 95.8908 26.5123 96.1743 26.6184 96.2791C26.7244 96.3838 26.8421 96.6961 26.8798 96.9733C26.9348 97.3781 26.8961 97.525 26.682 97.7218C26.4063 97.9751 25.7698 98.0601 25.7698 97.8436C25.7698 97.7761 25.6298 97.6861 25.4587 97.6436C25.1068 97.5565 24.6264 96.7617 24.6264 96.2666C24.6264 96.0941 24.7138 95.7465 24.8208 95.4941C25.0008 95.069 24.9985 95.0261 24.789 94.9116C24.6647 94.8437 24.4113 94.629 24.2261 94.4346C23.8634 94.0538 23.6101 93.9782 23.6101 94.2507C23.6101 94.3441 23.4569 94.5835 23.2696 94.7828C22.9726 95.0992 22.9281 95.2536 22.9202 95.996C22.9154 96.4639 22.9685 96.8872 23.0384 96.9367C23.1083 96.9861 23.2796 97.2521 23.4194 97.5279C23.6642 98.0115 24.5447 98.9693 24.7445 98.9693C24.7979 98.9693 24.9684 99.0777 25.1233 99.2103C25.5132 99.544 26.3127 99.6542 26.9887 99.4674C27.2965 99.3823 27.5484 99.2759 27.5484 99.2308C27.5484 99.1857 27.7146 99.0519 27.9176 98.9335C28.2913 98.7158 28.6918 97.854 28.6918 97.2681C28.6918 96.8945 28.1978 95.3344 28.0795 95.3344C28.0278 95.3344 27.8746 95.0524 27.739 94.7077C27.6035 94.363 27.448 94.081 27.3935 94.081C27.2006 94.081 27.2927 93.3564 27.4953 93.2797C27.9397 93.1114 28.3025 93.2205 28.7427 93.6549C29.1225 94.0296 29.2 94.1952 29.2 94.6325C29.2 94.9221 29.1388 95.2194 29.0641 95.2931C28.9675 95.3883 29.0961 95.5953 29.508 96.0075C29.827 96.3268 30.1311 96.5875 30.1839 96.5871C30.3982 96.5853 30.7559 95.7305 30.8131 95.0837C30.8597 94.5549 30.8108 94.2557 30.6027 93.799C30.4536 93.4716 30.2756 93.2036 30.2072 93.2036C30.139 93.2036 30.0287 93.0626 29.9623 92.8903C29.8958 92.7179 29.7548 92.5769 29.6489 92.5769C29.5429 92.5769 29.3844 92.46 29.2963 92.3172C28.9594 91.7698 27.5521 91.5178 26.7787 91.8664ZM92.341 96.4625C92.1917 96.6693 91.9948 96.8385 91.9032 96.8385C91.8117 96.8385 91.6603 96.9296 91.5666 97.0409C91.42 97.215 91.4444 97.284 91.7416 97.5363C91.9315 97.6974 92.0869 97.8785 92.0869 97.9385C92.0869 97.9987 92.3145 98.2693 92.5929 98.5399C92.8712 98.8105 93.0999 99.0844 93.1011 99.1484C93.1022 99.2125 93.289 99.4464 93.5161 99.6682C94.3438 100.477 95.1359 101.35 95.1359 101.454C95.1359 101.512 95.2931 101.699 95.4853 101.869C95.6775 102.039 96.001 102.386 96.2043 102.639L96.5739 103.099L96.8665 102.82C97.0275 102.667 97.3224 102.407 97.522 102.243L97.8847 101.944L97.3361 101.411C97.0344 101.117 96.7875 100.825 96.7875 100.761C96.7875 100.697 96.6018 100.473 96.3746 100.264C95.9132 99.8379 94.9153 98.7288 94.4771 98.1546C94.3193 97.9478 94.0885 97.7049 93.9643 97.6148C93.8401 97.5248 93.7385 97.3761 93.7385 97.2845C93.7385 97.193 93.593 97.0239 93.415 96.909C93.2371 96.794 93.0279 96.5619 92.95 96.3932C92.7664 95.9956 92.67 96.0065 92.341 96.4625ZM33.2972 96.9117C33.07 97.0097 32.8843 97.1418 32.8843 97.2051C32.8843 97.2686 32.6801 97.3869 32.4308 97.4681C32.1812 97.5493 31.9496 97.6867 31.916 97.7733C31.8823 97.8599 31.6305 98.0038 31.3565 98.0931C31.0824 98.1823 30.755 98.3454 30.6291 98.4555C30.5031 98.5658 30.1729 98.7683 29.8953 98.9054C29.6177 99.0426 29.362 99.1882 29.3271 99.2289C29.2921 99.2696 28.9777 99.4393 28.6283 99.6062C28.2789 99.7729 27.9301 99.9658 27.8532 100.035C27.7762 100.104 27.4481 100.273 27.1239 100.411C26.4592 100.694 26.3869 100.869 26.8497 101.077C27.0244 101.156 27.1673 101.276 27.1673 101.345C27.1673 101.414 27.3497 101.563 27.5727 101.677C27.9542 101.871 28.0048 101.87 28.4303 101.648C28.6789 101.519 28.9932 101.315 29.1287 101.194C29.465 100.895 29.665 100.919 29.9105 101.288C30.0249 101.46 30.1936 101.601 30.2852 101.601C30.377 101.601 30.5562 101.728 30.6835 101.884C30.8109 102.039 31.1291 102.307 31.3906 102.479C31.8419 102.776 31.9913 103.035 31.765 103.127C31.7084 103.149 31.5714 103.487 31.4604 103.877C31.2673 104.555 31.3209 104.86 31.6332 104.86C31.6856 104.86 31.923 105.058 32.1605 105.299C32.398 105.54 32.6254 105.738 32.6658 105.738C32.7062 105.738 32.8045 105.428 32.8843 105.048C32.9641 104.669 33.0718 104.359 33.1237 104.359C33.1755 104.359 33.3508 103.795 33.5133 103.106C33.6757 102.416 33.8539 101.852 33.9094 101.852C33.9649 101.852 34.1081 101.415 34.2277 100.881C34.3472 100.346 34.4894 99.8807 34.5436 99.8456C34.5979 99.8106 34.7549 99.3326 34.8927 98.7834L35.1431 97.785L34.8713 97.444C34.7217 97.2565 34.535 97.1 34.4561 97.0961C34.3773 97.0923 34.2418 97.0046 34.1547 96.9012C33.9654 96.6762 33.8395 96.6777 33.2972 96.9117ZM33.1886 98.9399C33.1115 98.9905 32.9169 99.5256 32.7565 100.129C32.4188 101.398 32.2913 101.468 31.5591 100.787C31.2998 100.545 31.0345 100.348 30.9696 100.348C30.9047 100.348 30.8516 100.292 30.8516 100.223C30.8516 100.154 30.9373 100.097 31.0422 100.097C31.147 100.097 31.2327 100.047 31.2327 99.9858C31.2327 99.9245 31.5042 99.7488 31.8362 99.5953C32.1682 99.4419 32.4682 99.2758 32.5032 99.2261C32.5931 99.0984 33.0506 98.852 33.2019 98.8498C33.2741 98.8486 33.2684 98.8876 33.1886 98.9399ZM88.7074 99.1879C88.4585 99.4335 88.0678 99.6781 87.7356 99.7967C87.5161 99.8749 87.4151 100.348 87.6178 100.348C87.6754 100.348 87.7894 100.672 87.8712 101.069C88.2192 102.756 88.3218 103.172 88.4049 103.231C88.4534 103.265 88.5335 103.519 88.5829 103.795C88.7508 104.731 89.087 106.051 89.1735 106.114C89.2209 106.148 89.3333 106.585 89.4233 107.085C89.5971 108.051 89.755 108.195 90.1472 107.743C90.2668 107.605 90.4364 107.493 90.5241 107.493C90.6118 107.493 90.7731 107.358 90.8828 107.193C91.0606 106.925 91.0623 106.809 90.8977 106.106C90.686 105.202 90.7514 105.019 91.4142 104.667C91.6524 104.541 91.9945 104.302 92.1745 104.138C92.7165 103.642 93.0171 103.589 93.625 103.878C93.9227 104.02 94.2475 104.217 94.3469 104.315C94.5494 104.514 94.9937 104.428 95.2011 104.148C95.2725 104.051 95.4727 103.903 95.6463 103.817C96.0698 103.609 96.044 103.335 95.5806 103.119C95.371 103.021 95.1663 102.892 95.1257 102.831C95.0851 102.77 94.8331 102.605 94.5656 102.464C94.2982 102.322 93.9986 102.127 93.8998 102.029C93.8011 101.932 93.647 101.852 93.5574 101.852C93.4677 101.852 93.2551 101.725 93.0847 101.57C92.9143 101.415 92.5351 101.175 92.2417 101.037C91.9485 100.9 91.708 100.75 91.7071 100.704C91.7064 100.658 91.4432 100.496 91.1221 100.342C90.8012 100.189 90.3926 99.9302 90.2143 99.7671C90.036 99.604 89.8214 99.4707 89.7375 99.4707C89.6535 99.4707 89.453 99.3579 89.2919 99.22C88.9389 98.9178 88.9789 98.9201 88.7074 99.1879ZM37.0798 100.191C36.907 100.519 36.7002 100.828 36.6202 100.878C36.5403 100.928 36.4033 101.139 36.3158 101.348C36.2282 101.556 36.1092 101.727 36.0513 101.727C35.9933 101.727 35.8148 102.009 35.6545 102.354C35.4943 102.698 35.3211 102.98 35.2697 102.98C35.2184 102.98 35.0596 103.206 34.917 103.482C34.7745 103.757 34.6017 103.983 34.5333 103.983C34.4649 103.983 34.4088 104.059 34.4088 104.153C34.4088 104.246 34.2803 104.461 34.123 104.631C33.9657 104.801 33.7187 105.19 33.574 105.495C33.2731 106.131 33.3203 106.22 34.1969 106.667C34.6606 106.904 34.67 106.904 34.8517 106.667C34.9531 106.535 35.0378 106.359 35.04 106.277C35.0423 106.194 35.1199 106.081 35.2126 106.026C35.3054 105.971 35.5198 105.674 35.6891 105.367C35.8584 105.06 36.097 104.707 36.2192 104.584C36.3414 104.46 36.4415 104.277 36.4415 104.177C36.4415 104.077 36.5174 103.95 36.6101 103.895C36.7029 103.84 36.9173 103.544 37.0865 103.236C37.2559 102.929 37.4945 102.577 37.6167 102.453C37.7389 102.329 37.839 102.172 37.839 102.103C37.839 102.034 37.9391 101.875 38.0613 101.75C38.1836 101.625 38.3975 101.301 38.5365 101.029C38.6756 100.758 38.8367 100.502 38.8945 100.461C38.9523 100.419 38.8123 100.309 38.5835 100.215C38.3547 100.122 38.065 99.9444 37.9398 99.8208C37.5882 99.4739 37.4202 99.5463 37.0798 100.191ZM39.2319 101.424C39.0947 101.74 38.9824 102.05 38.9824 102.113C38.9824 102.176 38.9223 102.228 38.8489 102.228C38.7755 102.228 38.6261 102.44 38.5171 102.698C38.4079 102.957 38.2792 103.196 38.231 103.231C38.1827 103.265 38.0103 103.603 37.8478 103.981C37.6853 104.359 37.4809 104.726 37.3936 104.796C37.3063 104.866 37.1343 105.191 37.0115 105.518C36.8886 105.846 36.7503 106.114 36.7039 106.114C36.6575 106.114 36.55 106.304 36.465 106.536C36.3799 106.768 36.1919 107.092 36.0469 107.256C35.8213 107.512 35.8125 107.561 35.9854 107.596C36.0966 107.618 36.1874 107.678 36.1874 107.728C36.1874 107.779 36.4147 107.919 36.6926 108.04C37.1764 108.251 37.2076 108.25 37.434 108.033C37.5641 107.908 37.7707 107.552 37.8933 107.242C38.0159 106.932 38.1555 106.65 38.2034 106.616C38.2514 106.581 38.3979 106.313 38.5287 106.02C38.6597 105.727 38.8076 105.487 38.8574 105.487C38.9072 105.487 39.0533 105.219 39.1823 104.892C39.3306 104.515 39.4336 104.377 39.4629 104.516C39.4884 104.636 39.5546 104.735 39.61 104.735C39.6655 104.735 39.7528 105.788 39.804 107.075C39.8552 108.363 39.9516 109.534 40.0182 109.678C40.1689 110.004 41.5233 110.571 41.5233 110.307C41.5233 110.214 41.5989 110.092 41.6911 110.037C41.7835 109.982 41.9602 109.683 42.0838 109.373C42.2074 109.063 42.3479 108.781 42.3958 108.746C42.4439 108.712 42.594 108.435 42.7297 108.132C42.8653 107.829 43.0374 107.519 43.1122 107.443C43.1871 107.367 43.3818 106.994 43.5451 106.615C43.7083 106.236 43.8777 105.898 43.9214 105.863C43.965 105.829 44.1145 105.575 44.2535 105.299C44.3926 105.023 44.5434 104.769 44.5886 104.735C44.6339 104.701 44.7622 104.456 44.8738 104.192C45.1136 103.623 45.0427 103.515 44.217 103.192L43.6712 102.978L43.4723 103.449C43.3629 103.708 43.2329 103.949 43.1836 103.983C43.1342 104.017 42.9588 104.328 42.7937 104.672C42.6287 105.017 42.4595 105.327 42.4178 105.362C42.3761 105.396 42.23 105.678 42.0931 105.988C41.9563 106.299 41.7505 106.654 41.6359 106.779C41.4398 106.992 41.4228 106.958 41.3513 106.215C41.3094 105.78 41.2375 104.536 41.1916 103.45C41.1263 101.905 41.0704 101.476 40.9346 101.476C40.8392 101.476 40.761 101.427 40.761 101.368C40.761 101.269 39.8026 100.849 39.5771 100.849C39.5245 100.849 39.3693 101.108 39.2319 101.424ZM90.3083 101.717C90.6227 101.884 90.9257 102.096 90.9816 102.187C91.0375 102.279 91.1546 102.354 91.242 102.354C91.4805 102.354 91.6948 102.612 91.6187 102.808C91.5818 102.903 91.4862 102.981 91.4063 102.982C91.3264 102.983 91.0676 103.153 90.8309 103.358C90.5944 103.564 90.3555 103.732 90.3 103.732C90.2446 103.732 90.134 103.422 90.0542 103.043C89.9744 102.664 89.8673 102.354 89.8162 102.354C89.765 102.354 89.6626 102.062 89.5887 101.705C89.4896 101.228 89.4914 101.104 89.5953 101.235C89.673 101.333 89.9938 101.55 90.3083 101.717ZM84.9089 101.727C84.6294 101.854 84.3269 101.963 84.2366 101.968C84.1464 101.973 83.9519 102.088 83.8045 102.224L83.5367 102.47L83.769 104.073C83.8967 104.954 84.0381 105.703 84.083 105.738C84.204 105.831 84.4296 107.486 84.3113 107.414C84.2556 107.38 84.2086 107.285 84.2066 107.203C84.2047 107.121 84.0073 106.913 83.7679 106.74C83.5286 106.568 83.3158 106.366 83.295 106.29C83.2536 106.14 82.5672 105.283 82.0186 104.696C81.8264 104.49 81.6693 104.278 81.6693 104.224C81.6693 104.17 81.4988 104.006 81.2904 103.859L80.9117 103.593L80.3215 103.851C79.9969 103.992 79.6528 104.108 79.5569 104.108C79.461 104.108 79.3825 104.159 79.3825 104.22C79.3825 104.282 79.2445 104.366 79.0758 104.408C78.7929 104.478 78.7803 104.513 78.913 104.86C78.9922 105.067 79.0988 105.236 79.1497 105.236C79.2007 105.236 79.3416 105.547 79.4628 105.926C79.5838 106.305 79.7227 106.615 79.7713 106.615C79.8199 106.615 79.988 106.954 80.1447 107.367C80.3015 107.781 80.48 108.119 80.5414 108.119C80.6027 108.119 80.6529 108.197 80.6529 108.291C80.6529 108.505 81.162 109.663 81.2933 109.749C81.3463 109.783 81.4877 110.107 81.6076 110.469C81.7274 110.831 81.8761 111.127 81.938 111.127C81.9998 111.127 82.0504 111.209 82.0504 111.308C82.0504 111.577 82.2601 111.655 82.4577 111.46C82.5532 111.365 82.8437 111.213 83.1032 111.12C83.5562 110.958 83.6886 110.819 83.4735 110.73C83.4178 110.708 83.2388 110.322 83.0755 109.874C82.9124 109.426 82.7287 109.027 82.6673 108.988C82.606 108.949 82.4366 108.583 82.2909 108.174C82.1452 107.765 81.987 107.402 81.9394 107.367C81.8917 107.333 81.7417 107.051 81.6057 106.74C81.4698 106.43 81.2999 106.135 81.2282 106.084C81.1452 106.026 81.1566 105.992 81.2595 105.99C81.3486 105.989 81.472 106.12 81.5338 106.28C81.5956 106.44 81.7943 106.667 81.9753 106.784C82.1563 106.901 82.3045 107.077 82.3045 107.175C82.3045 107.273 82.4055 107.427 82.529 107.517C82.6525 107.607 82.8461 107.822 82.959 107.994C83.0721 108.166 83.2892 108.448 83.4417 108.621C83.8116 109.039 84.2898 109.616 84.5776 109.993C84.7996 110.283 84.84 110.291 85.3369 110.144C85.6255 110.059 85.8617 109.939 85.8617 109.877C85.8617 109.816 85.9761 109.73 86.1158 109.686C86.3583 109.61 86.4859 109.122 86.2632 109.122C86.2045 109.122 86.0219 108.248 85.8577 107.179C85.6934 106.111 85.5127 105.236 85.4562 105.236C85.3998 105.236 85.3535 105.095 85.3535 104.923C85.3535 104.394 85.5627 104.573 85.8594 105.356C86.0149 105.766 86.1819 106.118 86.2303 106.139C86.2788 106.16 86.4516 106.54 86.6142 106.985C86.7769 107.429 86.9914 107.873 87.0909 107.971C87.1903 108.069 87.3056 108.317 87.347 108.521C87.4435 108.997 87.6048 109.051 88.2 108.805C88.999 108.476 89.0358 108.399 88.7375 107.684C88.593 107.337 88.4039 106.982 88.317 106.893C88.2302 106.805 88.0606 106.424 87.94 106.047C87.8196 105.67 87.68 105.362 87.6299 105.362C87.5797 105.362 87.436 105.08 87.3104 104.735C87.1848 104.39 87.0414 104.108 86.9919 104.108C86.9422 104.108 86.8011 103.793 86.6781 103.407C86.5551 103.021 86.3826 102.635 86.2946 102.548C86.2066 102.461 86.0476 102.184 85.9411 101.933C85.7232 101.419 85.6263 101.399 84.9089 101.727ZM45.4617 103.932C45.4617 104.029 45.4185 104.108 45.3658 104.108C45.2573 104.108 44.949 105.002 45.0191 105.114C45.044 105.154 45.3539 105.264 45.7078 105.36C46.0614 105.455 46.351 105.579 46.351 105.635C46.351 105.691 46.4511 105.739 46.5733 105.74C47.0251 105.744 47.1092 105.899 46.9643 106.462C46.8895 106.753 46.7899 106.991 46.7432 106.991C46.6964 106.991 46.5485 107.386 46.4145 107.869C46.2805 108.351 46.1336 108.746 46.088 108.746C46.0424 108.746 45.8749 109.197 45.7158 109.749C45.5566 110.3 45.3833 110.751 45.3307 110.751C45.2782 110.751 45.1977 110.906 45.1518 111.096C45.1059 111.286 45.0387 111.54 45.0024 111.66C44.9545 111.819 45.0084 111.879 45.1991 111.879C45.3435 111.879 45.4617 111.933 45.4617 111.999C45.4617 112.101 46.2232 112.378 46.5098 112.38C46.5623 112.38 46.6051 112.273 46.6051 112.141C46.6051 112.008 46.6582 111.882 46.723 111.859C46.7878 111.836 46.9726 111.366 47.1337 110.814C47.2947 110.263 47.4714 109.779 47.5264 109.74C47.5814 109.7 47.7384 109.281 47.8755 108.809C48.0126 108.336 48.1747 107.917 48.2357 107.877C48.2968 107.838 48.4191 107.505 48.5076 107.137C48.6332 106.614 48.7135 106.482 48.8754 106.532C48.9893 106.567 49.4255 106.695 49.8447 106.817C50.2639 106.939 50.626 107.084 50.6493 107.14C50.7221 107.315 50.9246 107.251 50.9246 107.054C50.9246 106.95 50.9748 106.866 51.0361 106.866C51.0975 106.866 51.2058 106.64 51.277 106.364C51.4012 105.881 51.3932 105.858 51.07 105.78C50.8852 105.736 50.7054 105.663 50.6705 105.618C50.6356 105.574 50.2497 105.433 49.8129 105.305C49.3763 105.176 49.0189 105.024 49.0189 104.966C49.0189 104.908 48.9428 104.86 48.8497 104.86C48.6188 104.86 46.9382 104.339 46.8592 104.243C46.8242 104.201 46.4954 104.074 46.1287 103.961C45.569 103.788 45.4617 103.784 45.4617 103.932ZM85.3133 104.383C85.2727 104.482 85.2426 104.453 85.2365 104.307C85.2311 104.175 85.2611 104.101 85.3032 104.142C85.3454 104.184 85.35 104.292 85.3133 104.383ZM75.832 105.313C75.3815 105.41 74.9813 105.536 74.9426 105.592C74.904 105.648 74.3109 105.828 73.6244 105.992L72.3765 106.29L72.461 106.734C72.5073 106.979 72.5839 107.207 72.631 107.242C72.6781 107.276 72.8208 107.699 72.9482 108.181C73.0755 108.664 73.2193 109.087 73.2676 109.121C73.3159 109.156 73.4964 109.763 73.6687 110.469C73.8409 111.176 74.0178 111.754 74.0616 111.754C74.1054 111.754 74.2452 112.205 74.372 112.757C74.4989 113.308 74.6634 113.758 74.7376 113.757C75.476 113.74 76.544 113.226 76.254 113.027C76.1877 112.982 75.997 112.381 75.8303 111.691C75.6636 111.002 75.4696 110.4 75.3991 110.354C75.1964 110.221 76.1592 110.088 76.6581 110.18C76.9065 110.226 77.2075 110.36 77.3268 110.478C77.4462 110.596 77.7263 110.82 77.9495 110.977C78.4899 111.357 78.9715 111.758 79.2773 112.083C79.5007 112.321 79.5851 112.336 80.0586 112.219C80.3505 112.148 80.618 112.052 80.6529 112.008C80.6878 111.963 80.9165 111.868 81.1611 111.795C81.514 111.691 81.5604 111.645 81.3863 111.571C81.2655 111.52 80.9103 111.245 80.5969 110.958C79.346 109.816 78.7075 109.373 78.3148 109.373C78.2032 109.373 78.112 109.288 78.112 109.185C78.112 109.081 78.1872 108.997 78.2792 108.997C78.3712 108.997 78.6366 108.785 78.8691 108.527C79.2412 108.113 79.2934 107.968 79.3054 107.315C79.3144 106.824 79.2655 106.556 79.1601 106.522C79.0729 106.493 78.9993 106.375 78.9968 106.26C78.9904 105.972 78.5021 105.443 78.0743 105.262C77.6239 105.071 76.8752 105.088 75.832 105.313ZM72.1359 106.308C72.0853 106.422 67.6017 107.005 66.8504 106.995C66.7007 106.993 66.5422 107.084 66.4982 107.197C66.4074 107.43 66.8032 111.031 66.9302 111.127C66.9756 111.162 67.102 111.968 67.211 112.919C67.32 113.87 67.4429 114.681 67.4841 114.722C67.5926 114.829 72.9032 114.23 72.9032 114.11C72.9032 114.055 73.0522 114.01 73.2344 114.01C73.4842 114.01 73.5467 113.962 73.4885 113.812C73.4461 113.703 73.4114 113.393 73.4114 113.123V112.632H72.8397C72.5253 112.632 72.268 112.68 72.268 112.74C72.268 112.891 69.1028 113.196 68.9736 113.057C68.9164 112.995 68.8331 112.571 68.7884 112.115L68.7071 111.285L69.0582 111.216C69.2515 111.178 70.1091 111.076 70.9643 110.99L72.519 110.832L72.4394 110.134C72.3955 109.75 72.3534 109.427 72.3456 109.417C72.3379 109.406 71.6455 109.474 70.807 109.568C69.9685 109.661 69.0967 109.74 68.8696 109.743C68.4717 109.748 68.4567 109.73 68.4567 109.247C68.4567 108.972 68.3995 108.746 68.3296 108.746C68.2598 108.746 68.2026 108.662 68.2026 108.56C68.2026 108.332 68.3374 108.302 70.5529 108.05C71.5311 107.938 72.3479 107.831 72.3679 107.811C72.3878 107.792 72.3569 107.416 72.2992 106.976C72.2414 106.536 72.1679 106.236 72.1359 106.308ZM77.2311 106.745C77.3663 106.816 77.4768 106.957 77.4768 107.058C77.4768 107.159 77.534 107.242 77.6038 107.242C77.8327 107.242 77.737 107.771 77.4664 108.003C77.3209 108.127 77.0351 108.265 76.8312 108.31C76.6273 108.354 76.4605 108.43 76.4605 108.479C76.4605 108.574 75.4461 108.871 75.1247 108.871C75.0207 108.871 74.9359 108.759 74.9359 108.621C74.9359 108.483 74.8857 108.37 74.8244 108.37C74.763 108.37 74.6526 108.136 74.5792 107.851C74.4074 107.183 74.5018 107.093 75.6347 106.839C76.7338 106.593 76.9217 106.582 77.2311 106.745ZM61.7233 107.116C61.7233 107.185 61.632 107.242 61.5202 107.242C61.1687 107.242 60.4628 107.633 60.0118 108.078C59.3622 108.719 59.0554 109.657 59.0554 111.002C59.0554 112.902 59.7605 114.172 61.0544 114.601C61.3874 114.712 61.6941 114.853 61.736 114.916C61.8344 115.063 64.0299 115.057 64.127 114.91C64.1675 114.848 64.5019 114.723 64.8702 114.63C65.2384 114.538 65.6505 114.361 65.786 114.237C65.9214 114.112 66.0917 114.01 66.1645 114.01C66.2493 114.01 66.2969 113.45 66.2969 112.457C66.2969 111.156 66.2643 110.891 66.0959 110.827C65.9854 110.786 65.2136 110.751 64.3808 110.751C63.024 110.751 62.8666 110.774 62.8653 110.971C62.8646 111.091 62.8285 111.402 62.7852 111.66L62.7064 112.13L63.3265 112.132C64.2828 112.135 64.5183 112.231 64.5183 112.621C64.5183 113.006 64.3116 113.258 63.9953 113.258C63.8753 113.258 63.7534 113.329 63.7241 113.415C63.6883 113.52 63.3846 113.571 62.7924 113.569C62.024 113.566 61.8701 113.525 61.5645 113.241C61.3724 113.062 61.2152 112.852 61.2152 112.774C61.2152 112.696 61.1607 112.632 61.0941 112.632C60.7737 112.632 60.5832 110.737 60.8214 109.917C60.9777 109.38 61.549 108.776 61.9923 108.68C62.1938 108.636 62.3586 108.549 62.3586 108.485C62.3586 108.422 62.5301 108.37 62.7397 108.37C62.9493 108.37 63.1208 108.426 63.1208 108.495C63.1208 108.564 63.2406 108.621 63.3871 108.621C63.7741 108.621 64.35 109.068 64.4454 109.443C64.5146 109.715 64.5826 109.756 64.8724 109.702C65.0619 109.666 65.4601 109.601 65.757 109.556C66.1756 109.494 66.2969 109.422 66.2969 109.236C66.2969 109.104 66.2453 108.997 66.1823 108.997C66.1193 108.997 66.004 108.813 65.9261 108.589C65.7333 108.035 64.9457 107.379 64.3595 107.286C64.0975 107.244 63.8831 107.161 63.8831 107.1C63.8831 107.04 63.3971 106.991 62.8032 106.991C62.168 106.991 61.7233 107.043 61.7233 107.116ZM52.8692 111.061L52.7665 111.817L53.116 111.856C53.3082 111.878 53.4655 111.94 53.4655 111.994C53.4655 112.09 55.6128 112.435 55.6971 112.352C55.7207 112.328 55.791 111.99 55.8531 111.599C55.9753 110.83 55.924 110.751 55.2972 110.751C55.1282 110.751 54.99 110.703 54.99 110.644C54.99 110.585 54.5359 110.484 53.981 110.42L52.9721 110.304L52.8692 111.061Z" fill="white" fill-opacity="0.8"/>
</svg>
