<svg width="61" height="51" viewBox="0 0 61 51" fill="none" xmlns="http://www.w3.org/2000/svg">
<path d="M60.999 6.49178C58.75 7.50244 56.3644 8.16583 53.9216 8.4599C56.466 6.91301 58.4197 4.46345 59.3396 1.54483C56.9208 3.00078 54.2745 4.02658 51.5149 4.57792C49.2671 2.14883 46.0648 0.630737 42.5205 0.630737C35.7152 0.630737 30.1978 6.22715 30.1978 13.1296C30.1978 14.1094 30.3069 15.0632 30.5169 15.9783C20.2759 15.4568 11.1963 10.4809 5.11858 2.91871C4.05812 4.76474 3.45047 6.91206 3.45047 9.20241C3.45047 13.5389 5.62605 17.3645 8.93225 19.6061C6.97544 19.5439 5.06168 19.0078 3.35075 18.0425C3.35005 18.0949 3.35005 18.1472 3.35005 18.1998C3.35005 24.2558 7.59753 29.3077 13.2344 30.456C11.4198 30.9565 9.51651 31.0298 7.66979 30.6701C9.23772 35.6359 13.7886 39.2494 19.1805 39.3506C14.9633 42.7028 9.64994 44.7012 3.877 44.7012C2.88223 44.7012 1.90153 44.6419 0.9375 44.5265C6.39067 48.0729 12.8677 50.1422 19.8264 50.1422C42.4919 50.1422 54.8859 31.0961 54.8859 14.5792C54.8859 14.037 54.8742 13.498 54.8502 12.9621C57.2626 11.1931 59.3448 9.00206 60.999 6.49178" fill="white"/>
</svg>
