<svg width="34" height="32" viewBox="0 0 34 32" fill="none" xmlns="http://www.w3.org/2000/svg">
<path d="M33.5164 26.0448L20.5307 2.09077C20.1869 1.45816 19.6792 0.93008 19.0609 0.562137C18.4427 0.194194 17.7368 0 17.0177 0C16.2985 0 15.5927 0.194194 14.9744 0.562137C14.3562 0.93008 13.8484 1.45816 13.5046 2.09077L0.505655 26.0448C0.165422 26.6564 -0.00880459 27.3467 0.000342477 28.0467C0.00948955 28.7468 0.20169 29.4322 0.557787 30.0347C0.913884 30.6372 1.42144 31.1357 2.02986 31.4805C2.63828 31.8253 3.32631 32.0044 4.02538 31.9999H29.9967C30.69 32.0006 31.3716 31.8207 31.9746 31.4779C32.5776 31.1352 33.0812 30.6413 33.4362 30.0449C33.7911 29.4484 33.9851 28.7697 33.9992 28.0755C34.0132 27.3812 33.8469 26.6953 33.5164 26.0849V26.0448ZM15.0245 8.95385C15.0245 8.42267 15.2352 7.91324 15.6102 7.53763C15.9853 7.16202 16.494 6.95101 17.0243 6.95101C17.5547 6.95101 18.0634 7.16202 18.4384 7.53763C18.8135 7.91324 19.0242 8.42267 19.0242 8.95385V18.1536C19.0242 18.6848 18.8135 19.1942 18.4384 19.5698C18.0634 19.9454 17.5547 20.1564 17.0243 20.1564C16.494 20.1564 15.9853 19.9454 15.6102 19.5698C15.2352 19.1942 15.0245 18.6848 15.0245 18.1536V8.95385ZM17.0777 26.9928C16.6241 26.9928 16.1808 26.8581 15.8037 26.6058C15.4266 26.3534 15.1326 25.9947 14.9591 25.5751C14.7855 25.1554 14.7401 24.6937 14.8286 24.2482C14.9171 23.8027 15.1355 23.3935 15.4562 23.0723C15.7769 22.7511 16.1855 22.5324 16.6303 22.4437C17.0751 22.3551 17.5362 22.4006 17.9552 22.5744C18.3742 22.7483 18.7324 23.0426 18.9844 23.4203C19.2363 23.798 19.3708 24.242 19.3708 24.6962C19.3708 25.3053 19.1292 25.8895 18.6992 26.3202C18.2691 26.7508 17.6859 26.9928 17.0777 26.9928Z" fill="#D8B45D"/>
</svg>
